<?xml version="1.0" encoding="utf-8"?>
<!-- Generator: Adobe Illustrator 17.1.0, SVG Export Plug-In . SVG Version: 6.00 Build 0)  -->
<!DOCTYPE svg PUBLIC "-//W3C//DTD SVG 1.1//EN" "http://www.w3.org/Graphics/SVG/1.1/DTD/svg11.dtd">
<svg version="1.1" xmlns="http://www.w3.org/2000/svg" xmlns:xlink="http://www.w3.org/1999/xlink" x="0px" y="0px"
	 viewBox="0 0 1440 580" enable-background="new 0 0 1440 580" xml:space="preserve">
<g id="Speech_Bubble">
	<path fill="#ED1C24" d="M45,483.8V96.2c0-2.3,1.9-4.2,4.2-4.2h387.7c2.3,0,4.2,1.9,4.2,4.2v129.6c0,0.7-0.5,1.2-1.2,1.2h-60.6
		c-0.7,0-1.2-0.5-1.2-1.2v-69.9c0-0.5-0.4-0.9-0.9-0.9H108.9c-0.5,0-0.9,0.4-0.9,0.9v268.2c0,0.5,0.4,0.9,0.9,0.9h268.2
		c0.5,0,0.9-0.4,0.9-0.9V380c0-0.7,0.5-1.2,1.2-1.2h60.6c0.7,0,1.2,0.5,1.2,1.2v103.8c0,2.3-1.9,4.2-4.2,4.2H252
		c0,0-44.9,54-53.9,54S144,488,144,488H49.2C46.9,488,45,486.1,45,483.8z"/>
</g>
<g id="Simple">
	<g>
		<path fill="#FFFFFF" d="M193.6,330.9c3.4,5.8,7.8,10.2,13.2,13.1c5.4,2.9,11.5,4.3,18.4,4.3c4.3,0,8.3-0.6,12.1-1.9
			c3.8-1.3,7.1-3.1,9.8-5.5c2.8-2.3,5-5.2,6.6-8.5c1.6-3.3,2.4-7.1,2.4-11.2c0-4.8-1-8.8-3-11.9c-2-3.1-4.7-5.7-8.1-7.7
			c-3.4-2-7.2-3.7-11.4-5.2c-4.2-1.4-8.6-2.9-13.1-4.3c-4.5-1.4-8.8-3.1-13.1-4.9c-4.2-1.8-8-4.2-11.4-7.1c-3.4-2.9-6.1-6.6-8.1-11
			c-2-4.4-3-9.9-3-16.4c0-6.1,1.2-11.5,3.6-16.3c2.4-4.7,5.7-8.7,9.8-11.9c4.1-3.2,8.8-5.6,14.1-7.2c5.3-1.6,10.9-2.4,16.8-2.4
			c7.5,0,14.5,1.3,21,4c6.4,2.7,12,7.1,16.7,13.4l-11.1,8c-3.3-4.5-7.1-8-11.4-10.2c-4.4-2.3-9.5-3.4-15.5-3.4
			c-4.2,0-8.1,0.6-11.9,1.7c-3.8,1.1-7.1,2.7-9.8,4.9c-2.8,2.1-5,4.8-6.7,8.1c-1.7,3.3-2.5,7.1-2.5,11.5c0,6.9,1.8,12.2,5.3,15.9
			c3.5,3.7,7.9,6.6,13.2,8.8c5.3,2.1,11,4,17.2,5.7c6.2,1.6,11.9,3.8,17.2,6.5c5.3,2.7,9.7,6.5,13.2,11.4c3.5,4.9,5.3,11.6,5.3,20.2
			c0,6.2-1.2,11.8-3.5,16.6c-2.3,4.8-5.5,8.9-9.5,12.2c-4,3.3-8.5,5.8-13.7,7.5c-5.2,1.7-10.6,2.5-16.2,2.5
			c-9.1,0-17.5-1.6-25.2-4.8c-7.7-3.2-14.2-8.5-19.7-16.1L193.6,330.9z"/>
		<path fill="#FFFFFF" d="M294,230.6c0-2.5,0.8-4.5,2.5-6.2c1.7-1.7,3.8-2.5,6.2-2.5c2.5,0,4.5,0.8,6.2,2.5c1.7,1.7,2.5,3.8,2.5,6.2
			c0,2.5-0.8,4.6-2.5,6.2c-1.7,1.7-3.8,2.5-6.2,2.5c-2.5,0-4.6-0.8-6.2-2.5C294.9,235.2,294,233.1,294,230.6z M297,266.3h11.7v90.1
			H297V266.3z"/>
		<path fill="#FFFFFF" d="M341.8,291.7c0-1.7-0.1-3.7-0.2-6.1c-0.1-2.4-0.2-4.8-0.3-7.3c-0.1-2.5-0.2-4.8-0.3-6.9
			c-0.1-2.1-0.2-3.8-0.2-5h11.7c0.1,3.4,0.2,6.6,0.3,9.8c0.1,3.1,0.2,5.1,0.5,6h0.6c2.3-4.9,6.2-9.2,11.7-12.8
			c5.5-3.6,11.8-5.4,19.1-5.4c6,0,11.4,1.5,16.4,4.6c4.9,3.1,8.5,8,10.7,14.9c2.9-6.8,7.1-11.7,12.8-14.8c5.7-3.1,11.6-4.7,17.8-4.7
			c7,0,12.7,1.1,17.2,3.3c4.4,2.2,7.9,5.1,10.4,8.7c2.5,3.6,4.3,7.7,5.3,12.4c1,4.7,1.5,9.5,1.5,14.4v53.6h-11.7v-53
			c0-3.6-0.3-7.2-1-10.6c-0.7-3.4-1.8-6.5-3.4-9.3c-1.6-2.7-3.9-4.9-6.8-6.5c-2.9-1.6-6.7-2.4-11.4-2.4c-5.5,0-9.9,1-13.5,3
			c-3.5,2-6.3,4.6-8.3,7.7c-2,3.1-3.4,6.5-4.3,10.1c-0.8,3.6-1.3,7.1-1.3,10.3v50.7h-11.7v-54.2c0-8.3-1.5-15-4.6-20.1
			c-3.1-5.1-7.8-7.6-14.1-7.6c-4.3,0-8.4,0.7-12.2,2.2c-3.8,1.5-7.2,3.8-9.9,6.8c-2.8,3.1-5,6.9-6.6,11.5c-1.6,4.6-2.4,10-2.4,16.3
			v45h-11.7V291.7z"/>
		<path fill="#FFFFFF" d="M505.4,266.3h11.7v15.8h0.4c1.8-3.1,4.1-5.8,6.8-8.1c2.7-2.3,5.7-4.2,8.9-5.7c3.2-1.5,6.5-2.6,10-3.3
			c3.5-0.7,7-1.1,10.3-1.1c6.9,0,13.2,1.2,19,3.5c5.8,2.3,10.8,5.6,15,9.8c4.2,4.2,7.5,9.2,9.8,15c2.3,5.8,3.5,12.1,3.5,19
			c0,6.9-1.2,13.2-3.5,19c-2.3,5.8-5.6,10.8-9.8,15c-4.2,4.2-9.2,7.5-15,9.8c-5.8,2.3-12.1,3.5-19,3.5c-3.4,0-6.8-0.4-10.3-1.1
			c-3.5-0.7-6.9-1.8-10-3.3c-3.2-1.5-6.1-3.4-8.9-5.7c-2.7-2.3-5-5-6.8-8.1h-0.4v60.3h-11.7V266.3z M516,311.4c0,5.1,1,9.8,2.9,14.3
			c2,4.5,4.6,8.4,8,11.7c3.4,3.3,7.3,5.9,11.9,7.9c4.5,2,9.5,2.9,14.8,2.9c5.5,0,10.4-1,14.8-2.9c4.4-2,8.2-4.6,11.3-7.9
			c3.1-3.3,5.5-7.2,7.1-11.7c1.6-4.5,2.4-9.3,2.4-14.3c0-5.1-0.8-9.8-2.4-14.3c-1.6-4.5-4-8.4-7.1-11.7c-3.1-3.3-6.9-5.9-11.3-7.9
			c-4.4-1.9-9.4-2.9-14.8-2.9c-5.3,0-10.3,1-14.8,2.9c-4.6,2-8.5,4.6-11.9,7.9c-3.4,3.3-6,7.2-8,11.7
			C516.9,301.5,516,306.3,516,311.4z"/>
		<path fill="#FFFFFF" d="M629,209h11.7v147.4H629V209z"/>
		<path fill="#FFFFFF" d="M753.5,339.5c-4.6,6.9-10.2,11.8-16.9,14.8c-6.7,3-14.1,4.5-22.1,4.5c-6.9,0-13.1-1.2-18.7-3.5
			c-5.6-2.3-10.4-5.6-14.4-9.8c-4-4.2-7.1-9.2-9.3-15c-2.1-5.8-3.2-12.2-3.2-19.2c0-6.8,1.1-13,3.3-18.7c2.2-5.7,5.3-10.7,9.4-14.9
			c4-4.2,8.8-7.5,14.2-9.9c5.5-2.4,11.5-3.6,18.1-3.6c6.9,0,13,1.2,18.2,3.6c5.3,2.4,9.7,5.6,13.3,9.6c3.6,4,6.3,8.5,8.1,13.6
			c1.8,5.1,2.7,10.2,2.7,15.4v8.2h-75.7c0,2.5,0.5,5.6,1.5,9.5c1,3.8,2.8,7.6,5.4,11.2c2.6,3.6,6.1,6.8,10.4,9.4
			c4.4,2.6,10,3.9,16.9,3.9c6,0,11.8-1.4,17.4-4.3c5.6-2.9,9.9-6.8,12.9-11.7L753.5,339.5z M744.5,303.8c0-4-0.8-7.8-2.4-11.3
			c-1.6-3.5-3.8-6.6-6.6-9.3c-2.8-2.7-6.1-4.8-9.9-6.3c-3.8-1.6-7.9-2.3-12.2-2.3c-6.4,0-11.7,1.3-15.9,3.9c-4.2,2.6-7.6,5.6-10,9
			c-2.5,3.4-4.2,6.7-5.3,9.8c-1,3.2-1.6,5.4-1.6,6.5H744.5z"/>
	</g>
	<g>
		<path fill="#FFFFFF" d="M853.2,240.4l1.3-6.9c-0.7-9.5-7.2-14.3-19.3-14.3c-7.1,0-13.2,2.5-18.4,7.6c-5.2,5-7.8,10.3-7.8,15.9
			s2.3,10.4,7,14.6c4.7,4.2,10.3,7.9,17,11.1c6.6,3.3,13.2,6.8,19.9,10.6c6.6,3.8,12.3,8.7,17,14.7c4.7,6,7,12.8,7,20.4
			c0,15.7-6.2,28.1-18.6,37.1c-12.4,9-25.7,13.5-40,13.5c-14.3,0-26.2-2.6-35.8-7.8c-9.5-5.2-14.3-13.1-14.3-23.7
			c0-5.7,1.9-10.8,5.8-15.4c3.9-4.6,9.4-6.9,16.7-6.9c2.8,0,5.4,0.8,7.7,2.4c2.3,1.6,3.7,3.7,4.2,6.4c0,2.6-1.6,4-4.8,4
			c-6,0-9,2.6-9,7.7c0.2,5.8,3,11.1,8.3,15.9c5.4,4.8,13,7.2,22.8,7.2c9.8,0,18.2-3.4,25.2-10.1c7-6.7,10.5-14.8,10.5-24.4
			c0-6.4-2.4-12.1-7.2-17.2c-4.8-5.1-10.5-9.5-17.2-13.1c-6.7-3.6-13.5-7.3-20.3-11c-6.8-3.7-12.6-8.2-17.4-13.5
			c-4.8-5.3-7.2-11.3-7.2-18c0-11.8,5.1-21.3,15.2-28.4c10.2-7.1,21.7-10.6,34.6-10.6c8.7,0,16.5,1.8,23.6,5.3
			c7.1,3.5,10.7,8.9,10.9,16.2c0,4.2-1.1,7.8-3.2,10.6c-2.1,2.8-5,4.2-8.6,4.2C855.3,244.3,853.4,243,853.2,240.4z"/>
		<path fill="#FFFFFF" d="M894.8,279.6c1.9-2.3,5-5.3,9.3-8.9c4.2-3.6,7.6-5.4,10.1-5.4c2.5,0,3.7,3.5,3.7,10.5
			c0,7-1.9,13.8-5.6,20.5c-0.7,3.2-1.2,7.8-1.6,13.8c5.1-14,10.2-24.5,15.4-31.5c5.1-7.1,11.3-10.6,18.7-10.6
			c7.3,0,13.7,3.3,19.2,9.9c5.5,6.6,8.2,17.1,8.2,31.3c0,14.2-4,26.8-12.1,37.8c-8,11-18.6,16.4-31.7,16.4c-6.7,0-13.5-2.5-20.4-7.4
			c0,33.7-1.9,59.4-5.8,77.1c-0.4,1.6-2.7,4.3-7,8.1c-4.3,3.8-7.5,5.7-9.5,5.7c-2,0-3.5-1.4-4.4-4.2c-0.9-2.8-1.3-5.5-1.3-8
			c0-18.2,3.7-41.6,11.1-70.2c1.2-16.6,2.1-34.8,2.5-54.6C894.1,290,894.5,279.9,894.8,279.6z M930.1,353.8
			c5.1,0,10.4-3.6,15.9-10.7c5.5-7.2,8.2-16,8.2-26.5c0-10.5-1.5-18.9-4.4-25.2c-2.9-6.3-6.8-9.4-11.8-9.4
			c-8.5,0-18.1,17.6-28.9,52.7c-0.4,4.9-0.5,8.8-0.5,11.7C913.6,351.3,920.7,353.8,930.1,353.8z"/>
		<path fill="#FFFFFF" d="M1056.5,363.3c-6.9,0-12.1-1.4-15.6-4.2c-1.2-1.2-1.9-4.4-1.9-9.4s0.2-11.8,0.5-20.3
			c-4.6,11.5-9.1,20-13.6,25.6c-4.5,5.6-10.3,8.3-17.4,8.3c-7.1,0-13.2-3.3-18.5-9.9c-5.3-6.6-8-17-8-31.3c0-14.2,4-26.8,12.1-37.8
			c8-11,18.6-16.4,31.7-16.4c5.7,0,12,3.7,19.1,11.1c1.4-1.9,3.9-4.3,7.6-7c3.6-2.7,6.7-4.1,9.3-4.1c2.6,0,3.8,3.4,3.8,10.1
			c0,1.8-0.5,5.2-1.5,10.3c-1,5.1-2.1,8.8-3.3,11.1c-1.6,4.1-2.4,18.5-2.4,43.2c0,4.8,0.5,7.2,1.6,7.2c3-0.2,7.2-3.9,12.5-11.3
			c5.3-7.3,10.6-16.7,15.8-28.2c5.2-11.5,8.4-17.2,9.5-17.2c1.1,0,1.7,0.7,1.7,2.1c0,4.9-2.6,12.8-7.7,23.6
			C1077.8,348.5,1066,363.3,1056.5,363.3z M1024.2,278.5c-4.9,0-10.2,3.7-15.8,11c-5.6,7.3-8.3,15.9-8.3,25.8c0,9.9,1.5,18,4.4,24.4
			c2.9,6.4,6.8,9.5,11.5,9.5c5.8,0,14.4-14.6,25.7-43.7c0.2-1.4,0.4-3.8,0.7-7.3c0.3-3.4,0.5-6,0.7-7.8c-1.6-2.8-4.4-5.5-8.3-8.1
			C1030.7,279.8,1027.2,278.5,1024.2,278.5z"/>
		<path fill="#FFFFFF" d="M1104.2,347.7l0.3,8.2c0,4.9-1.4,7.4-4.2,7.4c-4.2,0-8.3-0.6-12.2-1.7c-3.9-1.1-5.8-2.7-5.8-4.8
			c0-2,0.5-9,1.5-20.9c1-11.9,1.5-20.9,1.5-26.9v-15.6c0-8.5,0.9-13.6,2.7-15.4c1.8-1.8,4.9-4.3,9.4-7.7c4.5-3.4,7.8-5,9.8-5
			c2,0,3.3,0.4,3.8,1.1c0.5,0.7,0.8,2,0.8,4c0,9.4-1.8,18.2-5.3,26.5c-0.9,10.1-1.3,17.1-1.3,20.9c0.7-1.1,4.4-7.1,11.1-18
			c6.7-11,12.4-19,17.1-24.1c4.7-5.1,8.9-7.7,12.6-7.7s7,1.2,9.9,3.7c2.9,2.5,4.4,5.6,4.4,9.3c0,7.8-0.8,19.2-2.5,34.3
			c-1.7,15.1-2.5,24.6-2.5,28.6s0.5,6,1.6,6c3-0.2,7.2-3.9,12.5-11.3c5.3-7.3,10.6-16.7,15.8-28.2c5.2-11.5,8.4-17.2,9.5-17.2
			c1.1,0,1.7,0.7,1.7,2.1c0,4.9-2.6,12.8-7.7,23.6c-14,29.7-25.7,44.5-35.2,44.5c-6.9,0-12.1-1.4-15.6-4.2c-1.2-1.2-1.9-4.5-1.9-9.7
			c0-5.2,0.5-13.7,1.5-25.4c1-11.7,1.5-20.5,1.5-26.4s-1-8.7-3-8.7c-2,0-7.4,6.1-16,18.2c-8.7,12.1-13.2,19.8-13.8,23.2
			C1104.7,336.4,1104.2,342.2,1104.2,347.7z"/>
		<path fill="#FFFFFF" d="M1199.3,363.3c-6.9,0-12.1-1.4-15.6-4.2c-1.2-1.2-1.9-5.7-1.9-13.2c0-7.6,0.6-20.3,1.7-38
			c1.1-17.8,2.2-27.3,3-28.8c0.9-1.4,3.6-4.1,8.2-8c4.6-3.9,8.2-5.8,10.7-5.8c2.6,0,3.8,3.4,3.8,10.1c0,1.8-0.5,5.2-1.5,10.3
			c-1,5.1-2.1,8.8-3.3,11.1c-2.3,5.8-3.4,21.1-3.4,45.8c0,4.8,0.5,7.2,1.6,7.2c3-0.2,7.2-3.9,12.5-11.3c5.3-7.3,10.6-16.7,15.8-28.2
			c5.2-11.5,8.4-17.2,9.5-17.2c1.1,0,1.7,0.7,1.7,2.1c0,4.9-2.6,12.8-7.7,23.6C1220.6,348.5,1208.9,363.3,1199.3,363.3z
			 M1191.6,232.4c0-3.2,1.7-5.9,5-8.2c3.4-2.3,6.4-3.4,9-3.4c4.8,0,7.2,2.7,7.2,8.2c0,5.5-1.4,10.2-4.2,14.2c-2.8,4-6.8,6-11.9,6
			C1193.3,249.1,1191.6,243.5,1191.6,232.4z"/>
		<path fill="#FFFFFF" d="M1267.4,280.9l0.5-4c0-3.2-1.8-4.8-5.4-4.8c-3.6,0-7.1,2.3-10.5,7c-3.4,4.7-5,8.5-5,11.5
			c0,3,0.2,5.4,0.5,7.2c0.4,1.8,0.7,3.2,1.2,4.4c0.4,1.2,1.2,2.5,2.3,4.1c1.1,1.6,1.9,2.7,2.4,3.4l2.9,3.7c1.2,1.8,2.1,2.9,2.7,3.4
			c9.2-7.6,20.1-16.1,32.9-25.4c0.7-0.5,1.5-0.8,2.4-0.8c1.8,0,2.7,1,2.7,2.9c0,1.9-0.8,3.4-2.4,4.5c-11.3,7.2-22,15.1-32.1,23.6
			c3.9,5.7,5.8,11.8,5.8,18.5c0,6.7-2.6,12.5-7.7,17.2c-5.1,4.8-11.7,7.2-19.6,7.2c-8,0-11.9-3.8-11.9-11.4
			c0-5.5,5.8-13.9,17.5-25.2c-0.9-1.1-2.5-2.8-4.8-5.2c-2.3-2.4-4-4.3-5.2-5.7c-1.2-1.4-2.5-3.3-4.1-5.6c-2.8-4.4-4.2-9.2-4.2-14.3
			c0-10.4,3.4-18.9,10.1-25.3c6.7-6.4,13.9-9.7,21.5-9.7c4.8,0,8.5,1.3,11.1,3.8c2.6,2.6,4,5.2,4,7.8c0,6-1.4,9-4.2,9
			C1268.5,283,1267.4,282.3,1267.4,280.9z M1250.5,333.1c-7.1,7.1-10.6,12.8-10.6,17.1c0,4.3,2.2,6.5,6.6,6.5c2.7,0,4.9-1.1,6.6-3.2
			C1257,348.2,1256.1,341.4,1250.5,333.1z"/>
		<path fill="#FFFFFF" d="M1305.3,347.7l0.3,8.2c0,4.9-1.4,7.4-4.2,7.4c-4.2,0-8.3-0.6-12.2-1.7c-3.9-1.1-5.8-2.7-5.8-4.8
			c0-2,0.5-9,1.5-20.9c1-11.9,1.5-20.9,1.5-26.9v-15.4c0-45.2,8-74,24.1-86.4c3.7-2.8,7.5-4.2,11.4-4.2c1.8,0,3.5,1.9,5.3,5.8
			c1.8,3.9,2.6,8.9,2.6,15.1c0,15.2-2.6,29.4-7.7,42.7c-5.1,13.2-10.3,23.4-15.6,30.5c-0.2,4.4-0.3,11.3-0.3,20.7
			c0.7-1.1,4.4-7.1,11.1-18c6.7-11,12.4-19,17.1-24.1c4.7-5.1,8.9-7.7,12.6-7.7c3.7,0,7,1.2,9.9,3.7c2.9,2.5,4.4,5.6,4.4,9.3
			c0,7.8-0.8,19.2-2.5,34.3c-1.7,15.1-2.5,24.6-2.5,28.6s0.5,6,1.6,6c3-0.2,7.2-3.9,12.5-11.3c5.3-7.3,10.6-16.7,15.8-28.2
			c5.2-11.5,8.4-17.2,9.5-17.2c1.1,0,1.7,0.7,1.7,2.1c0,4.9-2.6,12.8-7.7,23.6c-14,29.7-25.7,44.5-35.2,44.5
			c-6.9,0-12.1-1.4-15.6-4.2c-1.2-1.2-1.9-4.5-1.9-9.7c0-5.2,0.5-13.7,1.5-25.4c1-11.7,1.5-20.5,1.5-26.4s-1-8.7-3-8.7
			c-2,0-7.4,6.1-16,18.2c-8.7,12.1-13.2,19.8-13.8,23.2C1305.8,336.4,1305.3,342.2,1305.3,347.7z M1322.5,229.8
			c0-7.4-1-11.1-2.9-11.1c-3.2,0-6.3,9.8-9.3,29.4c-1.6,10.4-2.7,22.5-3.4,36.3C1317.3,262.6,1322.5,244.4,1322.5,229.8z"/>
	</g>
</g>
</svg>
