<?xml version="1.0" encoding="utf-8"?>
<!-- Generator: Adobe Illustrator 17.1.0, SVG Export Plug-In . SVG Version: 6.00 Build 0)  -->
<!DOCTYPE svg PUBLIC "-//W3C//DTD SVG 1.1//EN" "http://www.w3.org/Graphics/SVG/1.1/DTD/svg11.dtd">
<svg version="1.1" xmlns="http://www.w3.org/2000/svg" xmlns:xlink="http://www.w3.org/1999/xlink" x="0px" y="0px"
	 viewBox="0 0 438.4 442" enable-background="new 0 0 438.4 442" xml:space="preserve">
<g id="objects">
	<g>
		<path fill="none" d="M367.9,197.6c10.2,81.2-47.5,155.3-128.7,165.5c-81.2,10.2-155.3-47.5-165.5-128.7
			C63.5,153.2,121.1,79.1,202.4,68.9C283.6,58.8,357.7,116.4,367.9,197.6z"/>
		<text transform="matrix(0.4267 -0.9044 0.9044 0.4267 85.8178 154.6188)"><tspan x="0" y="0" fill="#FFFFFF" font-family="'OstrichSans-Black'" font-size="18.0963"> </tspan><tspan x="7.3" y="0.1" fill="#FFFFFF" font-family="'OstrichSans-Black'" font-size="18.0963" rotate="2.8"> </tspan><tspan x="14.6" y="0.5" fill="#FFFFFF" font-family="'OstrichSans-Black'" font-size="18.0963" rotate="5.6"> </tspan><tspan x="21.9" y="1.3" fill="#FFFFFF" font-family="'OstrichSans-Black'" font-size="18.0963" rotate="8.5"> </tspan><tspan x="29.1" y="2.5" fill="#FFFFFF" font-family="'OstrichSans-Black'" font-size="18.0963" rotate="11.3"> </tspan><tspan x="36.3" y="4" fill="#FFFFFF" font-family="'OstrichSans-Black'" font-size="18.0963" rotate="14.1"> </tspan><tspan x="43.3" y="5.9" fill="#FFFFFF" font-family="'OstrichSans-Black'" font-size="18.0963" rotate="16.9"> </tspan><tspan x="50.3" y="8.1" fill="#FFFFFF" font-family="'OstrichSans-Black'" font-size="18.0963" rotate="19.7"> </tspan><tspan x="57.1" y="10.6" fill="#FFFFFF" font-family="'OstrichSans-Black'" font-size="18.0963" rotate="22.5"> </tspan><tspan x="63.9" y="13.5" fill="#FFFFFF" font-family="'OstrichSans-Black'" font-size="18.0963" rotate="25.3"> </tspan><tspan x="70.4" y="16.6" fill="#FFFFFF" font-family="'AvenirNext-Regular'" font-size="18.0963" rotate="29.4">S</tspan><tspan x="82.1" y="23.4" fill="#FFFFFF" font-family="'AvenirNext-Regular'" font-size="18.0963" rotate="33.5">i</tspan><tspan x="88.8" y="27.7" fill="#FFFFFF" font-family="'AvenirNext-Regular'" font-size="18.0963" rotate="38.8">m</tspan><tspan x="103.6" y="40" fill="#FFFFFF" font-family="'AvenirNext-Regular'" font-size="18.0963" rotate="45.4">p</tspan><tspan x="113.8" y="50.8" fill="#FFFFFF" font-family="'AvenirNext-Regular'" font-size="18.0963" rotate="49.9">l</tspan><tspan x="118.9" y="56.9" fill="#FFFFFF" font-family="'AvenirNext-Regular'" font-size="18.0963" rotate="54">e</tspan><tspan x="126.9" y="68.1" fill="#FFFFFF" font-family="'AvenirNext-Regular'" font-size="18.0963" rotate="59.2">S</tspan><tspan x="133.7" y="79.8" fill="#FFFFFF" font-family="'AvenirNext-Regular'" font-size="18.0963" rotate="64.7">p</tspan><tspan x="139.8" y="93.3" fill="#FFFFFF" font-family="'AvenirNext-Regular'" font-size="18.0963" rotate="70.1">a</tspan><tspan x="144.1" y="105.6" fill="#FFFFFF" font-family="'AvenirNext-Regular'" font-size="18.0963" rotate="75.3">n</tspan><tspan x="147.5" y="119.1" fill="#FFFFFF" font-family="'AvenirNext-Regular'" font-size="18.0963" rotate="79.5">i</tspan><tspan x="148.8" y="126.9" fill="#FFFFFF" font-family="'AvenirNext-Regular'" font-size="18.0963" rotate="83.3">s</tspan><tspan x="150.1" y="138.2" fill="#FFFFFF" font-family="'AvenirNext-Regular'" font-size="18.0963" rotate="88.2">h</tspan><tspan x="150.3" y="152.2" fill="#FFFFFF" font-family="'AvenirNext-Regular'" font-size="18.0963" rotate="92.5">.</tspan><tspan x="149.9" y="160.3" fill="#FFFFFF" font-family="'AvenirNext-Regular'" font-size="18.0963" rotate="96.4">c</tspan><tspan x="148.4" y="172.6" fill="#FFFFFF" font-family="'AvenirNext-Regular'" font-size="18.0963" rotate="101.6">o</tspan></text>
		<g>
			<path fill="none" d="M367.7,172.6c8.6,21,12.9,44.1,11.6,68.3c-4.5,87.2-79.2,154.5-166.5,150c-87.2-4.5-154.5-79.2-150-166.5
				c1.3-24.1,7.9-46.7,18.6-66.7l0.9,0c-10.8,20-17.5,42.5-18.7,66.7c-4.5,86.8,62.4,161.1,149.2,165.6
				c86.8,4.5,161-62.4,165.6-149.2c1.3-24.1-3-47.3-11.7-68.3L367.7,172.6z"/>
			<text transform="matrix(-0.4442 0.8959 -0.8959 -0.4442 80.5867 161.229)"><tspan x="0" y="0" fill="#FFFFFF" font-family="'OstrichSans-Black'" font-size="16.7257"> </tspan><tspan x="7.3" y="-0.1" fill="#FFFFFF" font-family="'OstrichSans-Black'" font-size="16.7257" rotate="-2.7"> </tspan><tspan x="14.5" y="-0.5" fill="#FFFFFF" font-family="'OstrichSans-Black'" font-size="16.7257" rotate="-5.3"> </tspan><tspan x="21.7" y="-1.3" fill="#FFFFFF" font-family="'OstrichSans-Black'" font-size="16.7257" rotate="-8"> </tspan><tspan x="28.9" y="-2.4" fill="#FFFFFF" font-family="'OstrichSans-Black'" font-size="16.7257" rotate="-10.6"> </tspan><tspan x="35.9" y="-3.8" fill="#FFFFFF" font-family="'OstrichSans-Black'" font-size="16.7257" rotate="-13.3"> </tspan><tspan x="42.9" y="-5.5" fill="#FFFFFF" font-family="'OstrichSans-Black'" font-size="16.7257" rotate="-15.9"> </tspan><tspan x="49.8" y="-7.6" fill="#FFFFFF" font-family="'OstrichSans-Black'" font-size="16.7257" rotate="-18.5"> </tspan><tspan x="56.7" y="-9.9" fill="#FFFFFF" font-family="'OstrichSans-Black'" font-size="16.7257" rotate="-21.1"> </tspan><tspan x="63.4" y="-12.6" fill="#FFFFFF" font-family="'OstrichSans-Black'" font-size="16.7257" rotate="-24.3"> </tspan><tspan x="69.9" y="-15.6" fill="#FFFFFF" font-family="'OstrichSans-Black'" font-size="16.7257" rotate="-26.3"> </tspan><tspan x="76.4" y="-18.9" fill="#FFFFFF" font-family="'OstrichSans-Black'" font-size="16.7257" rotate="-28.9"> </tspan><tspan x="82.6" y="-22.4" fill="#FFFFFF" font-family="'OstrichSans-Black'" font-size="16.7257" rotate="-31.6"> </tspan><tspan x="88.7" y="-26.3" fill="#FFFFFF" font-family="'OstrichSans-Black'" font-size="16.7257" rotate="-34.2"> </tspan><tspan x="94.7" y="-30.4" fill="#FFFFFF" font-family="'OstrichSans-Black'" font-size="16.7257" rotate="-36.9"> </tspan><tspan x="100.4" y="-34.8" fill="#FFFFFF" font-family="'OstrichSans-Black'" font-size="16.7257" rotate="-39.5"> </tspan><tspan x="105.9" y="-39.5" fill="#FFFFFF" font-family="'OstrichSans-Black'" font-size="16.7257" rotate="-42.1"> </tspan><tspan x="111.2" y="-44.4" fill="#FFFFFF" font-family="'OstrichSans-Black'" font-size="16.7257" rotate="-44.8"> </tspan><tspan x="116.3" y="-49.5" fill="#FFFFFF" font-family="'OstrichSans-Black'" font-size="16.7257" rotate="-47.4"> </tspan><tspan x="121.1" y="-54.9" fill="#FFFFFF" font-family="'OstrichSans-Black'" font-size="16.7257" rotate="-50.1"> </tspan><tspan x="125.6" y="-60.4" fill="#FFFFFF" font-family="'OstrichSans-Black'" font-size="16.7257" rotate="-52.7"> </tspan><tspan x="129.9" y="-66.2" fill="#FFFFFF" font-family="'OstrichSans-Black'" font-size="16.7257" rotate="-55.3"> </tspan><tspan x="134" y="-72.2" fill="#FFFFFF" font-family="'OstrichSans-Black'" font-size="16.7257" rotate="-57.9"> </tspan><tspan x="137.7" y="-78.4" fill="#FFFFFF" font-family="'OstrichSans-Black'" font-size="16.7257" rotate="-60.5"> </tspan><tspan x="141.2" y="-84.7" fill="#FFFFFF" font-family="'OstrichSans-Black'" font-size="16.7257" rotate="-63.1">	</tspan><tspan x="148.8" y="-101.6" fill="#FFFFFF" font-family="'OstrichSans-Black'" font-size="16.7257" rotate="-69.8"> </tspan><tspan x="151.2" y="-108.4" fill="#FFFFFF" font-family="'OstrichSans-Black'" font-size="16.7257" rotate="-72.4"> </tspan><tspan x="153.3" y="-115.3" fill="#FFFFFF" font-family="'OstrichSans-Black'" font-size="16.7257" rotate="-75"> </tspan><tspan x="155.1" y="-122.3" fill="#FFFFFF" font-family="'OstrichSans-Black'" font-size="16.7257" rotate="-77.6"> </tspan><tspan x="156.5" y="-129.3" fill="#FFFFFF" font-family="'OstrichSans-Black'" font-size="16.7257" rotate="-80.2"> </tspan><tspan x="157.8" y="-136.7" fill="#FFFFFF" font-family="'AvenirNext-DemiBold'" font-size="16.7257" rotate="-84.6">N</tspan><tspan x="159.2" y="-153.7" fill="#FFFFFF" font-family="'AvenirNext-DemiBold'" font-size="16.7257" rotate="-90.4">o</tspan><tspan x="158.8" y="-167.8" fill="#FFFFFF" font-family="'AvenirNext-DemiBold'" font-size="16.7257" rotate="-94.7">t</tspan><tspan x="158" y="-177.1" fill="#FFFFFF" font-family="'AvenirNext-DemiBold'" font-size="16.7257" rotate="-97.9"> </tspan><tspan x="156.8" y="-185.2" fill="#FFFFFF" font-family="'AvenirNext-DemiBold'" font-size="16.7257" rotate="-102.2">A</tspan><tspan x="153.3" y="-200.6" fill="#FFFFFF" font-family="'AvenirNext-DemiBold'" font-size="16.7257" rotate="-107.6">n</tspan><tspan x="148.9" y="-213.4" fill="#FFFFFF" font-family="'AvenirNext-DemiBold'" font-size="16.7257" rotate="-111.5"> </tspan><tspan x="146" y="-220.9" fill="#FFFFFF" font-family="'AvenirNext-DemiBold'" font-size="16.7257" rotate="-115.8">A</tspan><tspan x="138.9" y="-235" fill="#FFFFFF" font-family="'AvenirNext-DemiBold'" font-size="16.7257" rotate="-120.9">c</tspan><tspan x="132.6" y="-245.3" fill="#FFFFFF" font-family="'AvenirNext-DemiBold'" font-size="16.7257" rotate="-125.5">a</tspan><tspan x="124.8" y="-255.9" fill="#FFFFFF" font-family="'AvenirNext-DemiBold'" font-size="16.7257" rotate="-130.5">d</tspan><tspan x="115.2" y="-266.9" fill="#FFFFFF" font-family="'AvenirNext-DemiBold'" font-size="16.7257" rotate="-135.7">e</tspan><tspan x="105.3" y="-276.4" fill="#FFFFFF" font-family="'AvenirNext-DemiBold'" font-size="16.7257" rotate="-141.7">m</tspan><tspan x="90.3" y="-287.8" fill="#FFFFFF" font-family="'AvenirNext-DemiBold'" font-size="16.7257" rotate="-147.4">y</tspan><tspan x="79.7" y="-294.4" fill="#FFFFFF" font-family="'AvenirNext-DemiBold'" font-size="16.7257" rotate="-151.4">!</tspan></text>
		</g>
		<g>
			<path fill="#FFFFFF" d="M75.4,209.5l1.1,1.1c-2.2,2.3-2.7,5.4-2.2,8.4c1.3,7.3,8.7,12.4,16.7,11c6.7-1.2,12.3-6.8,10.9-14.2
				c-1.3-6.9-7.8-10-15.3-13.4c-6.9-3.1-13.7-6.2-15.1-14.2c-1.9-10.4,7.3-18.9,16.8-20.6c6.6-1.2,14.7,0.8,15.9,7.7
				c0.7,3.9-1,7.2-4,9.3l-1.2-0.9c1-1.2,1.3-2.7,0.9-4.7c-1-5.6-6.8-8.9-13.3-7.8c-5.8,1-11.2,5.6-10,12.2
				c1.2,6.4,7.4,9.6,14.2,12.7c6.9,3.1,14.2,6.3,15.8,15.1c2,11.1-7,20.8-17.5,22.7c-8.4,1.5-17.6-2-19.2-11
				C69,218,71,212.4,75.4,209.5z"/>
			<path fill="#FFFFFF" d="M113.6,179.8c-0.4-2.4,1.1-4.6,3.5-5.1c2.4-0.4,4.6,1.1,5.1,3.5c0.4,2.4-1.1,4.7-3.5,5.2
				C116.2,183.9,114,182.2,113.6,179.8z M113.6,194.5c1.2-1.2,3.5-2.7,4.9-2.9c1-0.2,1.6,0.3,1.8,1.6c0.2,1.2,0.2,4,0.1,7.3
				c-0.1,4.7-0.1,10.6,0.8,15.1c0.9,5,2.8,8.5,5.4,8c3.3-0.6,6.1-7.2,6.1-24.7l2-0.1c0,21.3-4,27.4-9.4,28.4
				c-4.5,0.8-9-2.1-10.5-10.6C113.7,210.5,114.2,202.2,113.6,194.5z"/>
			<path fill="#FFFFFF" d="M133.8,215.4c-1.4-7.7-0.9-16.1-1.5-24.2c1.2-1.2,3.6-2.7,4.9-2.9c1-0.2,1.6,0.4,1.8,1.6
				c0.3,1.9-0.1,8,0.1,14c0.1,2.9,0.4,6.4,0.7,8.7l0.2,0c0-3.2,0.3-7.3,1.2-11.4c1.6-7.6,4.9-13.9,10.1-15.7
				c3.3,0.1,6.1,1.4,8.2,3.4c-0.1,6.3-1,13.2,0.2,19.9c0.1,0.7,0.3,1.4,0.5,2.1l0.2,0c-0.2-4.4,0.2-8.2,0.7-11.5
				c1.4-9,5-15.8,10.3-17.4c3.5,0.1,6.4,1.3,8.5,3.3c-0.2,5.7-1.1,12.1,0.1,18.8c1,5.8,3.3,9.6,5.7,9.1c2.9-0.5,5.9-6.9,5.9-24.7
				l2-0.1c0.1,21.5-4.2,27.5-9.1,28.4c-4.5,0.8-9.3-2.3-11-11.6c-1.2-6.6-0.1-13.8-0.6-16.4c-0.3-1.6-1.2-2.4-2.7-2.2
				c-3.8,0.7-6.2,8.7-7,13.6c-1,6.2-0.9,12.5-0.1,18.5c-1.3,1.4-2.5,2.2-3.4,2.4c-2.8,0.5-5.2-4.9-6.1-9.9c-1.4-7.9-0.5-16.2-1-18.8
				c-0.3-1.6-1.1-2.4-2.5-2.1c-3.7,0.7-6.2,8.2-7.2,13.6c-1.2,6.4-1,13.2-0.4,18.8c-1.5,1.2-3,2-3.8,2.1
				C136,225.1,134.5,219.2,133.8,215.4z"/>
			<path fill="#FFFFFF" d="M191.4,187.6c-0.5-2.6-0.9-4.7-1.6-6.8c1.2-1.1,3.6-2.7,4.9-2.9c1.8-0.3,2.4,1.7,2.8,4.1
				c0.6,3.4,1.2,8.6,1.4,12.7l0.2,0c1.2-9.7,3.4-18.3,10.2-19.5c5.8-1,9.5,4.1,10.6,10.2c0.9,5,0.3,12.1-3.1,18.1
				c-2.8,5-7.2,8.7-12.5,9.7c-1.8,0.3-3.1,0.2-4.3,0.1c0.2,8.5,0.3,17.3,0.3,25c-1.5,1.8-3.8,3.3-5.1,3.6c-0.7,0.1-1.2-0.2-1.4-0.9
				c-0.2-1.2,0.1-7.2,0.1-17.5C194,211.3,193.5,199.2,191.4,187.6z M207,209.4c2.9-0.5,5-2.8,6.1-6.5c1.3-4.4,1.2-10.5,0.5-14.4
				c-0.5-2.7-2.2-9.8-5.8-9.1c-2.8,0.5-4.8,5.4-6,11.7c-1,5.4-1.5,12.3-1.7,17.3C201.6,209.5,204.9,209.8,207,209.4z"/>
			<path fill="#FFFFFF" d="M226.9,192.6c-1.4-7.8-1.4-20.5-0.4-31.2c0.2-2.5,1.1-10.7,2.4-16.1c1.8-2,4.5-4.1,5.7-4.4
				c0.3-0.1,0.6,0,1.1,0.2c3.6,1.6,6.3,7.5,7.2,12.7c1.7,9.6-1.8,22.9-10.7,27.6c0.3,3.4,0.6,6.8,1.1,9.6c1.7,9.3,5,12.5,7.9,12
				c3.5-0.6,7.5-6.8,7.4-25.2l2-0.1c0.2,16.5-3.3,27.4-10.9,28.8C235.5,207.4,229.1,205,226.9,192.6z M239.1,157.3
				c-0.7-4.1-2.4-8.4-5.4-10.8c-0.8,5.3-1.2,10.1-1.4,13.3c-0.3,4.9-0.5,12.5-0.2,19.2C238.5,175.3,240.7,165.6,239.1,157.3z"/>
			<path fill="#FFFFFF" d="M250.8,172c2.4-3,5.7-5.5,9.1-6.1c3.8-0.7,6.6,1.2,7.3,4.8c0.6,3.3-0.9,6.8-3.4,9.7
				c-3,3.4-7.3,6.2-11.1,7.8c1.7,7.3,6.5,11.4,11.4,10.5c6.1-1.1,11.6-9.8,11.5-25.6l2-0.1c0.1,19.3-7.4,28.1-15.2,29.5
				c-6.9,1.2-14.6-3.2-16.3-12.6C245.2,184.2,246.5,177.4,250.8,172z M262.1,173.2c-0.5-2.6-1.9-3.8-4-3.5c-2.3,0.4-4.1,2.6-5.2,6.1
				c-0.9,3.1-1.1,6.7-0.7,9.9C256.6,184.1,263.2,179.6,262.1,173.2z"/>
		</g>
		<g>
			<path fill="#FFFFFF" d="M160.8,267.7l1,1c-2.1,2.1-2.6,5.1-2.1,8c1.2,6.9,8.2,11.9,15.8,10.6c6.4-1.1,11.7-6.4,10.5-13.4
				c-1.2-6.6-7.3-9.5-14.5-12.8c-6.5-3-13-6-14.3-13.6c-1.7-9.9,7.1-18,16.1-19.5c6.3-1.1,13.9,0.8,15.1,7.4c0.6,3.7-1,6.8-3.8,8.9
				l-1.1-0.9c0.9-1.1,1.3-2.6,0.9-4.5c-0.9-5.4-6.4-8.5-12.6-7.5c-5.5,1-10.7,5.3-9.6,11.6c1.1,6.1,7,9.2,13.5,12.2
				c6.5,3,13.5,6.1,14.9,14.4c1.8,10.6-6.8,19.8-16.8,21.5c-8,1.4-16.8-2-18.2-10.5C154.7,275.7,156.5,270.4,160.8,267.7z"/>
			<path fill="#FFFFFF" d="M197.2,260.3c-0.4-2.4-0.9-4.5-1.5-6.5c1.1-1.1,3.5-2.6,4.6-2.8c1.7-0.3,2.2,1.6,2.6,3.9
				c0.6,3.2,1.1,8.2,1.3,12.1l0.2,0c1.1-9.2,3.3-17.4,9.8-18.5c5.5-1,9.1,3.9,10.1,9.8c0.8,4.8,0.2,11.5-3,17.2
				c-2.7,4.8-6.9,8.3-12,9.2c-1.7,0.3-3,0.2-4.1,0.1c0.2,8.1,0.2,16.5,0.2,23.8c-1.4,1.7-3.6,3.1-4.9,3.4c-0.7,0.1-1.2-0.2-1.3-0.9
				c-0.2-1.2,0.1-6.8,0.2-16.7C199.6,283,199.2,271.4,197.2,260.3z M211.9,281.2c2.8-0.5,4.7-2.6,5.8-6.1c1.3-4.2,1.2-10,0.5-13.7
				c-0.5-2.6-2-9.3-5.5-8.7c-2.7,0.5-4.6,5.1-5.8,11.2c-1,5.1-1.5,11.7-1.8,16.5C206.8,281.2,210,281.6,211.9,281.2z"/>
			<path fill="#FFFFFF" d="M229.7,268.2c-1.1-6.2,0.4-12.4,3.1-16.7c2.6-4.3,6.8-7.4,11.9-8.2c3.2-0.6,6.3-0.2,9.5,0.9
				c-0.1,5.6,0.1,13.8,1,19.5c0.9,5.3,2.8,9.3,5.3,8.8c2.9-0.5,5.7-6.9,5.7-23.6l1.9-0.1c0,20.2-3.9,26.3-8.7,27.1
				c-5.4,0.9-9.3-5.2-10.3-11.9l-0.2,0c-1.3,9.5-4.1,14.4-8.6,15.1C235.9,280,231.1,276.1,229.7,268.2z M246.8,264.7
				c0.9-5.3,1.2-11.8,1.3-17c-1.8-0.8-3.8-1-5.7-0.7c-2.3,0.4-4.4,1.6-5.8,3.5c-1.4,3.8-1.9,9.8-1,15.3c1,5.7,3.5,10,6.1,9.6
				C243.9,275.1,245.7,271.8,246.8,264.7z"/>
			<path fill="#FFFFFF" d="M267.2,264.6c-1.3-7.2-0.7-15.3-1.3-23c1.2-1.1,3.5-2.6,4.7-2.8c0.9-0.2,1.5,0.4,1.7,1.5
				c0.3,1.7-0.2,6.9,0,12.3c0.1,3.2,0.3,7.1,0.8,9.9l0.2,0c0-3,0.2-7,1-10.7c1.6-7.8,4.9-14,10-15.6c3,0.1,5.8,1.3,7.9,3.3
				c-0.2,5.6-1,11.9,0.1,18.2c0.9,5.4,2.9,8.8,5.4,8.4c2.8-0.5,5.8-6.5,5.8-23.5l1.9-0.1c0,20.5-4.1,26.1-9,27
				c-4.3,0.7-8.8-2.2-10.2-10.7c-1.1-6.5-0.2-13.5-0.6-16.1c-0.2-1.4-1-2.3-2.5-2c-3.6,0.6-6,8.2-6.9,13c-1.1,6-1.1,12.5-0.4,17.9
				c-1.4,1.1-2.9,1.9-3.7,2C269.3,274,267.8,268.3,267.2,264.6z"/>
			<path fill="#FFFFFF" d="M303.2,221.1c-0.4-2.3,1.1-4.4,3.4-4.8c2.3-0.4,4.4,1.1,4.8,3.4c0.4,2.3-1.1,4.5-3.4,4.9
				C305.7,225,303.6,223.4,303.2,221.1z M303.2,235.1c1.2-1.1,3.4-2.5,4.6-2.8c0.9-0.2,1.5,0.3,1.7,1.5c0.2,1.1,0.2,3.8,0.1,7
				c-0.1,4.5-0.1,10.1,0.7,14.4c0.8,4.8,2.6,8.1,5.1,7.6c3.2-0.6,5.9-6.9,6-23.5l1.9-0.1c-0.1,20.3-4,26.1-9.1,27
				c-4.3,0.8-8.6-2.1-10-10.2C303.2,250.3,303.7,242.4,303.2,235.1z"/>
			<path fill="#FFFFFF" d="M326.9,255.5c0.6,3.4,2.6,5.3,5.9,4.7c3.1-0.5,5.3-2.8,4.8-5.5c-0.4-2.5-2.8-4.1-7.5-6.5
				c-5-2.7-8.4-4.3-9.1-8.2c-1.1-6.4,6.1-11.4,11.6-12.3c4.5-0.8,8.1,1.1,8.8,4.6c0.5,2.8-1.1,4.7-3.9,5.3c0-0.5-0.1-0.8-0.1-1.2
				c-0.7-3.8-3.2-6.1-6.9-5.5c-3.2,0.5-5.4,2.9-5,5.5c0.4,2.3,2.8,3.8,8.2,6.8c4.6,2.5,7.8,3.9,8.5,7.6c1,5.9-5.3,11.4-10.9,12.4
				c-3.2,0.6-6.9-0.2-7.5-3.5C323.4,257.9,324.3,256.1,326.9,255.5z"/>
			<path fill="#FFFFFF" d="M348.4,249.2c-1.8-10.2-1.9-22.8-0.8-34c0.5-5.8,1.3-11,2.4-15.1c1.6-1.7,4.3-4,5.6-4.2
				c0.8-0.1,1.7,0.4,2.6,1c2.1,1.5,4.7,4.4,5.6,9.2c1.5,8.4-3.1,18.7-10.9,22.5c0,5.4,0.4,12.1,1.2,16.4c0.2,1.3,0.4,2.1,0.6,3.1
				l0.2,0c-0.1-4.2,0.3-8,1-11.1c1.5-6.8,4.7-12.1,9.5-13.6c3.4-0.1,6,1.3,7.9,3.3c-0.1,5.3-0.7,10.8,0.3,16.5c0.9,5.4,3,9,5.3,8.6
				c2.8-0.5,5.8-6.5,5.8-23.5l1.9-0.1c0,20.4-4.1,26.1-8.9,27c-4.2,0.7-8.8-2.4-10.3-11c-1-5.7-0.2-11.9-0.6-14.3
				c-0.2-1.4-1.1-2.3-2.5-2.1c-1.1,0.2-2.1,0.9-3.1,2.1c-1.6,2.1-2.9,5.5-3.6,9.9c-1.1,6.6-0.6,13,0,17.3c-1.5,1.2-3.1,2-3.9,2.1
				C350.5,259.8,349.1,252.7,348.4,249.2z M360.1,209.2c-0.6-3.5-2.4-7-5.3-8.9c-1.3,7.8-2,16.5-1.9,25.8
				C358.5,223.2,361.3,215.7,360.1,209.2z"/>
		</g>
		<polygon fill="#FFFFFF" points="349.3,166 355.2,151.5 344.3,153.2 338.5,154.1 326.6,155.9 286,162.2 290,188.8 330.8,182.5 
			342.7,180.6 348.4,179.7 359.4,178 		"/>
		<polygon fill="#FFFFFF" points="79.2,279 73.3,293.6 84.2,291.9 89.9,291 101.9,289.1 142.5,282.8 138.5,256.2 97.7,262.6 
			85.8,264.4 80.1,265.3 69.1,267 		"/>
	</g>
	<g>
		<path fill="#FFFFFF" d="M207.5,429.9c-1.1,0-2.2-0.1-3.3-0.1c-4.1-0.3-8-1.1-11.9-2.6c-4.5-1.7-7.9-4.3-11.3-6.9
			c-3.7-2.9-7.3-5.6-12-6.7c-0.9-0.2-1.7-0.5-2.5-0.9c-1-0.1-1.9-0.2-2.8-0.5c-2.1-0.7-4.2-1-6.8-1c-2.3,0-4.5,0.2-6.9,0.5
			c-2.5,0.3-5,0.6-7.6,0.6c-2,0-3.8-0.2-5.6-0.5c-4.1-0.8-7.9-2.1-11.6-4c-3.6-1.8-7-4.2-10-7c-3.5-3.3-5.6-7.1-7.7-10.8
			c-2.1-3.7-4-7.1-7.2-9.8c-0.3-0.2-0.6-0.4-0.8-0.6c-3.7-3.1-8-4.2-12.6-5.4c-4.1-1.1-8.3-2.2-12.4-4.7c-3.5-2.2-6.7-4.8-9.4-7.9
			c-2.8-3.1-5-6.4-6.8-10.2c-2-4.3-2.7-8.7-3.3-12.8c-0.7-4.7-1.3-9.1-3.9-13.1c-0.3-0.5-0.6-0.9-0.8-1.4c-0.4-0.5-0.8-1.1-1.1-1.7
			c-2.3-4.2-5.8-6.9-9.6-9.8c-3.4-2.6-6.8-5.2-9.6-9.1c-2.4-3.3-4.3-7-5.6-10.9c-1.4-3.9-2.2-7.8-2.4-12c-0.2-4.8,0.8-9,1.9-13.1
			c1.2-4.6,2.2-8.9,1.4-13.6c-0.3-1.5-0.3-3,0-4.4c-0.7-1.4-1.1-2.8-1.2-4.4c-0.4-4.8-2.5-8.7-4.8-12.8c-2-3.7-4.1-7.5-5.1-12.2
			c-0.8-4-1.1-8.2-0.7-12.2c0.3-4.1,1.2-8,2.7-11.9c1.7-4.5,4.4-7.9,7-11.2c2.9-3.7,5.7-7.2,6.8-11.9c0.2-0.9,0.5-1.7,0.9-2.5
			c0.1-0.9,0.3-1.9,0.6-2.8c1.6-4.6,1.1-9,0.7-13.7c-0.4-4.2-0.8-8.5,0.1-13.2c0.8-4.1,2.2-7.9,4.1-11.5c1.9-3.6,4.2-6.9,7.2-9.9
			c3.4-3.4,7.2-5.5,10.9-7.6c4.1-2.3,8-4.4,10.9-8.3c0.2-0.3,0.4-0.5,0.6-0.8c0.3-0.5,0.6-0.9,1-1.3c3.1-3.6,4.4-7.9,5.8-12.4
			c1.2-4,2.4-8.2,5.1-12.2c2.3-3.5,5-6.5,8.2-9.1c3.1-2.7,6.5-4.8,10.4-6.5c4.4-1.9,8.7-2.4,12.9-2.9c3.8-0.4,7.4-0.9,10.8-2.3
			c3.1-2.3,5.3-5.3,7.7-8.4c2.5-3.4,5.1-6.9,8.9-9.7c3.3-2.5,6.9-4.4,10.8-5.8c3.8-1.4,7.8-2.3,12-2.6c4.8-0.3,9,0.7,13.1,1.7
			c3.4,0.8,6.5,1.5,9.9,1.5c0.5,0,1,0,1.5-0.1c3.9-1,7.1-3.2,10.5-5.4c3.5-2.3,7.2-4.7,11.8-6.1c3.9-1.1,7.8-1.7,11.8-1.7l0.3,0
			l0.3,0c4,0,7.9,0.6,11.8,1.7c4.6,1.4,8.2,3.8,11.8,6.1c3.9,2.6,7.7,5,12.4,5.8c0.9,0.1,1.7,0.4,2.5,0.7c0.9,0,1.9,0.1,2.9,0.3
			c1.6,0.4,3.2,0.6,4.9,0.6c2.9,0,5.8-0.5,8.8-1.1c3.2-0.6,6.5-1.2,10-1.2c1.1,0,2.2,0.1,3.2,0.2c4.1,0.5,8,1.5,11.8,3.2
			c3.8,1.6,7.2,3.6,10.5,6.3c3.7,3,6.1,6.7,8.4,10.2c2.6,3.9,5.1,7.6,9.1,10.2c0.7,0.5,1.4,1,2.1,1.6c0.9,0.4,1.7,0.9,2.5,1.5
			c3.8,2.9,8.2,3.9,12.8,4.9c4.1,0.9,8.4,1.9,12.5,4.2c3.6,2,6.8,4.6,9.7,7.5c2.8,2.9,5.3,6.2,7.2,9.9c2.2,4.3,3,8.5,3.8,12.7
			c0.9,4.6,1.7,9,4.4,13c0.5,0.7,0.9,1.5,1.3,2.3c0.7,0.7,1.2,1.5,1.7,2.3c2.4,4.2,6,6.8,9.9,9.5c3.4,2.5,7,5,9.9,8.8
			c2.5,3.3,4.5,6.9,5.9,10.7c1.5,3.8,2.4,7.8,2.7,11.9c0.4,4.8-0.6,9-1.5,13.1c-1,4.6-2,9-1,13.7c0.2,0.9,0.3,1.8,0.2,2.6
			c0.3,0.9,0.6,1.8,0.7,2.8c0.6,4.8,2.9,8.6,5.4,12.6c2.2,3.6,4.5,7.3,5.7,12c1.1,4.1,1.5,8.1,1.3,12.2c-0.1,4.1-0.8,8.1-2.2,12
			c-1.5,4.5-4.1,8.1-6.5,11.5c-2.7,3.8-5.3,7.5-6.2,12.2c-0.2,0.8-0.4,1.7-0.8,2.5c0,1-0.2,1.9-0.5,2.9c-1.3,4.6-0.7,9,0,13.7
			c0.6,4.2,1.3,8.5,0.5,13.2c-0.6,4.1-1.8,8-3.6,11.7c-1.7,3.7-4,7.2-6.7,10.2c-3.2,3.6-6.9,5.9-10.5,8.1c-4,2.5-7.8,4.8-10.5,8.8
			c-0.5,0.7-1.1,1.4-1.7,2c-0.4,0.9-0.9,1.7-1.5,2.4c-3,3.7-4.2,8.1-5.3,12.6c-1.1,4.1-2.2,8.3-4.7,12.4c-2.2,3.6-4.8,6.7-7.9,9.4
			c-3,2.7-6.4,5-10.1,6.8c-4.3,2.1-8.6,2.7-12.8,3.3c-4.7,0.7-9.1,1.4-13.1,4c-0.7,0.5-1.5,0.9-2.4,1.2c-0.7,0.6-1.5,1.2-2.4,1.6
			c-4.2,2.3-7,5.8-9.8,9.5c-2.6,3.3-5.2,6.8-9.1,9.6c-3.4,2.4-7,4.3-10.9,5.6c-3.9,1.4-7.8,2.1-12,2.3c-4.8,0.2-9-0.9-13.1-1.9
			c-3.5-0.9-6.8-1.8-10.3-1.8c-1.2,0-2.3,0.1-3.4,0.3c-0.9,0.1-1.8,0.2-2.6,0.2c-0.9,0.3-1.9,0.5-2.8,0.6c-4.8,0.4-8.7,2.6-12.8,4.9
			c-3.7,2.1-7.5,4.2-12.2,5.2C213.5,429.6,210.5,429.9,207.5,429.9z M156.9,405.9c3.1,0,5.8,0.4,8.4,1.3c0.6,0.2,1.3,0.3,1.9,0.3
			l0.7,0l0.6,0.3c0.5,0.3,1.1,0.5,1.7,0.7c5.8,1.4,10,4.5,14,7.6c3.2,2.4,6.2,4.7,9.9,6.2c3.4,1.3,6.9,2,10.5,2.2
			c1,0.1,2,0.1,2.9,0.1c2.6,0,5.2-0.3,7.8-0.9c3.9-0.9,7.2-2.7,10.7-4.7c4.4-2.5,9-5,14.9-5.6c0.7-0.1,1.3-0.2,1.9-0.5l0.6-0.2
			l0.7,0.1c0.6,0.1,1.2,0.1,1.8-0.1c1.4-0.2,2.8-0.4,4.3-0.4c4.1,0,7.9,1,11.6,1.9c3.9,1,7.6,2,11.6,1.8c3.7-0.2,7.1-0.8,10.5-2
			c3.5-1.1,6.6-2.7,9.6-4.9c3.3-2.3,5.6-5.3,8-8.5c3.1-4,6.3-8.2,11.6-11c0.6-0.3,1.1-0.7,1.6-1.2l0.5-0.5l0.6-0.2
			c0.6-0.2,1.1-0.4,1.7-0.8c5-3.2,10.2-4,15.2-4.8c4-0.6,7.7-1.2,11.3-2.9c3.3-1.6,6.2-3.5,8.9-6c2.7-2.4,5-5.1,6.9-8.2
			c2.1-3.4,3.1-7.1,4.1-11c1.3-4.9,2.6-10,6.4-14.6c0.4-0.5,0.7-1.1,1-1.7l0.2-0.6l0.5-0.4c0.5-0.4,0.9-0.9,1.2-1.4
			c3.3-4.9,7.8-7.7,12.1-10.3c3.4-2.1,6.6-4.1,9.3-7.1c2.4-2.7,4.3-5.6,5.9-9c1.6-3.3,2.6-6.7,3.1-10.3c0.6-4,0-7.7-0.5-11.7
			c-0.7-5-1.5-10.2,0.1-15.9c0.2-0.6,0.3-1.3,0.3-1.9l0-0.7l0.3-0.6c0.3-0.6,0.5-1.1,0.6-1.7c1.2-5.9,4.2-10.1,7.1-14.3
			c2.3-3.3,4.5-6.3,5.8-10.1c1.2-3.5,1.8-6.9,1.9-10.5c0.2-3.6-0.2-7.1-1.1-10.7c-1-3.9-3-7.1-5.1-10.5c-2.6-4.3-5.4-8.8-6.1-14.7
			c-0.1-0.7-0.3-1.3-0.5-1.9l-0.3-0.6l0.1-0.7c0-0.6,0-1.2-0.1-1.8c-1.2-5.8-0.1-10.9,1-15.9c0.9-3.9,1.7-7.6,1.4-11.6
			c-0.3-3.6-1.1-7-2.4-10.4c-1.3-3.4-3-6.5-5.2-9.4c-2.4-3.2-5.5-5.4-8.8-7.7c-4.1-3-8.4-6-11.4-11.2c-0.3-0.6-0.7-1.1-1.2-1.5
			l-0.5-0.5l-0.2-0.7c-0.2-0.5-0.5-1.1-0.8-1.6c-3.4-4.9-4.4-10-5.3-15c-0.7-3.9-1.4-7.7-3.3-11.2c-1.7-3.2-3.7-6.1-6.3-8.7
			c-2.5-2.7-5.3-4.8-8.5-6.6c-3.5-2-7.2-2.8-11.1-3.7c-4.9-1.1-10.1-2.2-14.8-5.8c-0.5-0.4-1.1-0.7-1.7-0.9l-0.6-0.2l-0.4-0.5
			c-0.4-0.5-0.9-0.8-1.4-1.2c-5-3.2-7.9-7.5-10.8-11.7c-2.2-3.3-4.3-6.5-7.4-9.1c-2.8-2.3-5.8-4.1-9.2-5.5
			c-3.4-1.5-6.7-2.4-10.4-2.8c-0.9-0.1-1.7-0.1-2.6-0.1c-3,0-5.9,0.5-9,1.1c-3.1,0.6-6.3,1.2-9.7,1.2c-2.2,0-4.2-0.2-6.2-0.7
			c-0.6-0.2-1.3-0.2-1.9-0.2l-0.7,0l-0.6-0.3c-0.6-0.3-1.1-0.4-1.7-0.5c-5.9-0.9-10.2-3.8-14.5-6.6c-3.3-2.2-6.5-4.3-10.4-5.4
			c-3.4-1-6.8-1.5-10.3-1.5l-0.3,0l-0.3,0c-3.5,0-6.9,0.5-10.3,1.5c-3.8,1.1-7,3.2-10.3,5.4c-3.7,2.4-7.5,5-12.3,6.2l-0.4,0.1
			c-0.7,0.1-1.4,0.1-2.1,0.1c-3.9,0-7.6-0.9-11.1-1.7c-3.9-0.9-7.6-1.8-11.6-1.5c-3.7,0.2-7.1,1-10.5,2.2c-3.4,1.2-6.5,2.9-9.5,5.1
			c-3.2,2.4-5.5,5.4-7.8,8.6c-2.5,3.4-5.2,7-9.1,9.8l-0.2,0.2l-0.2,0.1c-4.2,1.9-8.5,2.4-12.6,2.8c-4,0.5-7.7,0.9-11.4,2.5
			c-3.4,1.5-6.3,3.3-9.1,5.7c-2.8,2.3-5.2,4.9-7.2,8c-2.2,3.3-3.3,7-4.4,10.8c-1.4,4.9-2.9,9.9-6.8,14.4c-0.2,0.2-0.4,0.5-0.6,0.8
			l-0.3,0.4c-0.2,0.2-0.3,0.4-0.5,0.6c-3.6,4.8-8.2,7.3-12.6,9.7c-3.5,1.9-6.8,3.8-9.6,6.6c-2.5,2.6-4.6,5.5-6.3,8.7
			c-1.7,3.2-2.9,6.5-3.6,10.1c-0.8,3.9-0.4,7.7,0,11.7c0.5,5,1,10.3-0.9,15.9c-0.2,0.6-0.3,1.3-0.3,1.9l0,0.7l-0.3,0.6
			c-0.3,0.5-0.5,1.1-0.7,1.8c-1.4,5.8-4.7,9.9-7.8,13.9c-2.5,3.2-4.8,6.1-6.3,9.9c-1.3,3.4-2.1,6.8-2.4,10.4
			c-0.3,3.7-0.1,7.1,0.6,10.7c0.8,3.9,2.6,7.3,4.6,10.8c2.4,4.4,4.9,9,5.4,15c0.1,1.1,0.4,2.1,1,3l0.7,1l-0.4,1.2
			c-0.3,1-0.4,2-0.2,3c1,5.9-0.2,10.9-1.5,15.8c-1,3.9-1.9,7.6-1.7,11.6c0.2,3.7,0.8,7.1,2.1,10.5c1.2,3.5,2.8,6.6,4.9,9.5
			c2.3,3.3,5.3,5.6,8.5,8c4,3.1,8.2,6.3,11,11.5c0.2,0.4,0.4,0.7,0.7,1.1l0.3,0.3l0.2,0.4c0.1,0.3,0.3,0.6,0.5,1
			c3.2,5,4,10.2,4.7,15.2c0.6,4,1.1,7.7,2.8,11.3c1.6,3.3,3.5,6.2,5.9,8.9c2.4,2.8,5.1,5,8.2,6.9c3.4,2.1,7.1,3.1,10.9,4.1
			c4.9,1.3,10,2.7,14.6,6.4c0.2,0.1,0.4,0.3,0.5,0.4l0.3,0.2c3.9,3.3,6.2,7.4,8.5,11.3c2,3.5,3.8,6.8,6.7,9.6
			c2.6,2.5,5.5,4.5,8.7,6.2c3.2,1.7,6.6,2.8,10.2,3.5c1.4,0.3,2.9,0.4,4.6,0.4c2.3,0,4.6-0.3,7.1-0.5
			C151.8,406.2,154.4,405.9,156.9,405.9z"/>
	</g>
</g>
</svg>
